<mxfile host="65bd71144e">
    <diagram id="lF-iAlCePSv7bX2SY94T" name="Page-1">
        <mxGraphModel dx="820" dy="261" grid="1" gridSize="10" guides="1" tooltips="1" connect="1" arrows="1" fold="1" page="1" pageScale="1" pageWidth="850" pageHeight="1100" math="0" shadow="0">
            <root>
                <mxCell id="0"/>
                <mxCell id="1" parent="0"/>
                <mxCell id="2" value=":Halaman data penilaian" style="rounded=0;whiteSpace=wrap;html=1;fillColor=none;strokeWidth=3;fontSize=14;fontStyle=1;fontColor=#000000;" vertex="1" parent="1">
                    <mxGeometry x="125" y="20" width="210" height="60" as="geometry"/>
                </mxCell>
                <mxCell id="3" value="&lt;span&gt;:Form data penilaian&lt;/span&gt;" style="rounded=0;whiteSpace=wrap;html=1;fillColor=none;strokeWidth=3;fontSize=14;fontStyle=1;fontColor=#000000;" vertex="1" parent="1">
                    <mxGeometry x="405" y="20" width="200" height="60" as="geometry"/>
                </mxCell>
                <mxCell id="4" value="" style="endArrow=classic;html=1;entryX=0;entryY=0.783;entryDx=0;entryDy=0;exitX=0.9;exitY=0.213;exitDx=0;exitDy=0;exitPerimeter=0;strokeWidth=3;fontSize=14;fontStyle=1;fontColor=#000000;entryPerimeter=0;" edge="1" parent="1" source="11" target="13">
                    <mxGeometry width="50" height="50" relative="1" as="geometry">
                        <mxPoint x="405" y="310" as="sourcePoint"/>
                        <mxPoint x="455" y="260" as="targetPoint"/>
                    </mxGeometry>
                </mxCell>
                <mxCell id="5" value="" style="endArrow=classic;html=1;exitX=1.1;exitY=0.043;exitDx=0;exitDy=0;exitPerimeter=0;strokeWidth=3;fontSize=14;fontStyle=1;fontColor=#000000;" edge="1" parent="1" source="11">
                    <mxGeometry width="50" height="50" relative="1" as="geometry">
                        <mxPoint x="405" y="310" as="sourcePoint"/>
                        <mxPoint x="235" y="151" as="targetPoint"/>
                    </mxGeometry>
                </mxCell>
                <mxCell id="6" value="" style="endArrow=classic;html=1;entryX=1.153;entryY=0.156;entryDx=0;entryDy=0;entryPerimeter=0;dashed=1;exitX=-0.3;exitY=0.565;exitDx=0;exitDy=0;exitPerimeter=0;strokeWidth=3;fontSize=14;fontStyle=1;fontColor=#000000;" edge="1" parent="1" source="13" target="11">
                    <mxGeometry width="50" height="50" relative="1" as="geometry">
                        <mxPoint x="235" y="180" as="sourcePoint"/>
                        <mxPoint x="245" y="152" as="targetPoint"/>
                    </mxGeometry>
                </mxCell>
                <mxCell id="7" value="Mengakses halaman data Penilaian()" style="text;html=1;align=center;verticalAlign=middle;whiteSpace=wrap;rounded=0;strokeWidth=3;fontSize=14;fontStyle=1;fontColor=#000000;" vertex="1" parent="1">
                    <mxGeometry x="75" y="100" width="130" height="40" as="geometry"/>
                </mxCell>
                <mxCell id="8" value="Menampilkan Halaman&amp;nbsp;&lt;div&gt;data&amp;nbsp;&lt;span style=&quot;color: rgb(0, 0, 0); text-wrap-mode: wrap; background-color: transparent;&quot;&gt;Penilaian()&lt;/span&gt;&lt;/div&gt;" style="text;html=1;align=center;verticalAlign=middle;resizable=0;points=[];autosize=1;strokeColor=none;fillColor=none;strokeWidth=3;fontSize=14;fontStyle=1;fontColor=#000000;" vertex="1" parent="1">
                    <mxGeometry x="55" y="155" width="170" height="50" as="geometry"/>
                </mxCell>
                <mxCell id="9" value="Akses()" style="text;html=1;align=center;verticalAlign=middle;resizable=0;points=[];autosize=1;strokeColor=none;fillColor=none;strokeWidth=3;fontSize=14;fontStyle=1;fontColor=#000000;" vertex="1" parent="1">
                    <mxGeometry x="250" y="118" width="70" height="30" as="geometry"/>
                </mxCell>
                <mxCell id="10" value="" style="endArrow=none;dashed=1;html=1;dashPattern=1 3;strokeWidth=3;fontSize=14;fontStyle=1;fontColor=#000000;" edge="1" parent="1">
                    <mxGeometry width="50" height="50" relative="1" as="geometry">
                        <mxPoint x="40" y="860" as="sourcePoint"/>
                        <mxPoint x="40" y="90" as="targetPoint"/>
                    </mxGeometry>
                </mxCell>
                <mxCell id="11" value="" style="rounded=0;whiteSpace=wrap;html=1;fillColor=default;strokeWidth=3;fontSize=14;fontStyle=1;fontColor=#000000;" vertex="1" parent="1">
                    <mxGeometry x="35" y="120" width="10" height="710" as="geometry"/>
                </mxCell>
                <mxCell id="12" value="" style="endArrow=none;dashed=1;html=1;dashPattern=1 3;strokeWidth=3;fontSize=14;fontStyle=1;fontColor=#000000;" edge="1" parent="1" source="15">
                    <mxGeometry width="50" height="50" relative="1" as="geometry">
                        <mxPoint x="242.58" y="656" as="sourcePoint"/>
                        <mxPoint x="245" y="90" as="targetPoint"/>
                    </mxGeometry>
                </mxCell>
                <mxCell id="13" value="" style="rounded=0;whiteSpace=wrap;html=1;fillColor=default;strokeWidth=3;fontSize=14;fontStyle=1;fontColor=#000000;" vertex="1" parent="1">
                    <mxGeometry x="240" y="126" width="10" height="184" as="geometry"/>
                </mxCell>
                <mxCell id="14" value="" style="endArrow=none;dashed=1;html=1;dashPattern=1 3;strokeWidth=3;fontSize=14;fontStyle=1;fontColor=#000000;" edge="1" parent="1" target="15">
                    <mxGeometry width="50" height="50" relative="1" as="geometry">
                        <mxPoint x="250" y="862" as="sourcePoint"/>
                        <mxPoint x="242.58" y="106" as="targetPoint"/>
                    </mxGeometry>
                </mxCell>
                <mxCell id="15" value="" style="rounded=0;whiteSpace=wrap;html=1;fillColor=default;strokeWidth=3;fontSize=14;fontStyle=1;fontColor=#000000;" vertex="1" parent="1">
                    <mxGeometry x="245" y="490" width="10" height="340" as="geometry"/>
                </mxCell>
                <mxCell id="16" value="" style="endArrow=classic;html=1;exitX=1.168;exitY=0.938;exitDx=0;exitDy=0;exitPerimeter=0;strokeWidth=3;fontSize=14;fontStyle=1;fontColor=#000000;" edge="1" parent="1" source="13">
                    <mxGeometry width="50" height="50" relative="1" as="geometry">
                        <mxPoint x="248" y="381" as="sourcePoint"/>
                        <mxPoint x="475" y="300" as="targetPoint"/>
                    </mxGeometry>
                </mxCell>
                <mxCell id="17" value="" style="endArrow=classic;html=1;entryX=1;entryY=0.5;entryDx=0;entryDy=0;dashed=1;exitX=0.289;exitY=0.301;exitDx=0;exitDy=0;exitPerimeter=0;strokeWidth=3;fontSize=14;fontStyle=1;fontColor=#000000;" edge="1" parent="1">
                    <mxGeometry width="50" height="50" relative="1" as="geometry">
                        <mxPoint x="723.8899999999999" y="600.538" as="sourcePoint"/>
                        <mxPoint x="255" y="600" as="targetPoint"/>
                    </mxGeometry>
                </mxCell>
                <mxCell id="18" value="" style="edgeStyle=elbowEdgeStyle;elbow=horizontal;endArrow=classic;html=1;curved=0;rounded=0;endSize=8;startSize=8;strokeWidth=3;fontSize=14;fontStyle=1;fontColor=#000000;exitX=0.113;exitY=1.133;exitDx=0;exitDy=0;exitPerimeter=0;entryX=0.9;entryY=0.652;entryDx=0;entryDy=0;entryPerimeter=0;" edge="1" parent="1" target="29" source="37">
                    <mxGeometry width="50" height="50" relative="1" as="geometry">
                        <mxPoint x="735" y="600" as="sourcePoint"/>
                        <mxPoint x="780" y="640" as="targetPoint"/>
                        <Array as="points">
                            <mxPoint x="769" y="590"/>
                        </Array>
                    </mxGeometry>
                </mxCell>
                <mxCell id="19" value="" style="endArrow=none;dashed=1;html=1;dashPattern=1 3;strokeWidth=3;fontSize=14;fontStyle=1;fontColor=#000000;" edge="1" parent="1">
                    <mxGeometry width="50" height="50" relative="1" as="geometry">
                        <mxPoint x="725" y="520" as="sourcePoint"/>
                        <mxPoint x="725" y="110" as="targetPoint"/>
                    </mxGeometry>
                </mxCell>
                <mxCell id="20" value="Menampilkan halaman&amp;nbsp;&lt;br&gt;&lt;div&gt;&lt;span style=&quot;color: rgb(0, 0, 0); text-wrap-mode: wrap; background-color: transparent;&quot;&gt;Penilaian()&lt;/span&gt;&lt;/div&gt;" style="text;html=1;align=center;verticalAlign=middle;resizable=0;points=[];autosize=1;strokeColor=none;fillColor=none;strokeWidth=3;fontSize=14;fontStyle=1;fontColor=#000000;" vertex="1" parent="1">
                    <mxGeometry x="275" y="250" width="170" height="50" as="geometry"/>
                </mxCell>
                <mxCell id="21" value="Menampilkan halaman data&amp;nbsp;&lt;span style=&quot;color: rgb(0, 0, 0); text-wrap-mode: wrap;&quot;&gt;Penilaian Karyawan&lt;/span&gt;()" style="text;html=1;align=center;verticalAlign=middle;resizable=0;points=[];autosize=1;strokeColor=none;fillColor=none;strokeWidth=3;fontSize=14;fontStyle=1;fontColor=#000000;" vertex="1" parent="1">
                    <mxGeometry x="85" y="310" width="330" height="30" as="geometry"/>
                </mxCell>
                <mxCell id="22" value="&lt;div&gt;&lt;span&gt;Pilih Karyawan yang akan dinilai()&lt;/span&gt;&lt;/div&gt;" style="text;html=1;align=center;verticalAlign=middle;resizable=0;points=[];autosize=1;strokeColor=none;fillColor=none;strokeWidth=3;fontSize=14;fontStyle=1;fontColor=#000000;" vertex="1" parent="1">
                    <mxGeometry x="128" y="370" width="230" height="30" as="geometry"/>
                </mxCell>
                <mxCell id="23" value="" style="endArrow=classic;html=1;entryX=0.8;entryY=0.697;entryDx=0;entryDy=0;entryPerimeter=0;dashed=1;strokeWidth=3;fontSize=14;fontStyle=1;fontColor=#000000;" edge="1" parent="1" target="11">
                    <mxGeometry width="50" height="50" relative="1" as="geometry">
                        <mxPoint x="240" y="612" as="sourcePoint"/>
                        <mxPoint x="45" y="540" as="targetPoint"/>
                    </mxGeometry>
                </mxCell>
                <mxCell id="24" value="&lt;div&gt;Menampilkan halaman&amp;nbsp;&lt;/div&gt;&lt;div&gt;&lt;span style=&quot;color: rgb(0, 0, 0); text-wrap-mode: wrap; background-color: transparent;&quot;&gt;data penilaian karyawan()&lt;/span&gt;&lt;br&gt;&lt;/div&gt;" style="text;html=1;align=center;verticalAlign=middle;resizable=0;points=[];autosize=1;strokeColor=none;fillColor=none;strokeWidth=3;fontSize=14;fontStyle=1;fontColor=#000000;" vertex="1" parent="1">
                    <mxGeometry x="50" y="565" width="180" height="50" as="geometry"/>
                </mxCell>
                <mxCell id="25" value="&lt;span&gt;:admin&lt;/span&gt;" style="rounded=0;whiteSpace=wrap;html=1;fillColor=none;strokeWidth=3;fontSize=14;fontStyle=1;fontColor=#000000;" vertex="1" parent="1">
                    <mxGeometry x="645" y="20" width="173" height="60" as="geometry"/>
                </mxCell>
                <mxCell id="26" value="" style="edgeStyle=elbowEdgeStyle;elbow=horizontal;endArrow=classic;html=1;curved=0;rounded=0;endSize=8;startSize=8;strokeWidth=3;fontSize=14;fontStyle=1;fontColor=#000000;exitX=0.086;exitY=1.133;exitDx=0;exitDy=0;exitPerimeter=0;entryX=1.3;entryY=0.554;entryDx=0;entryDy=0;entryPerimeter=0;" edge="1" parent="1" source="9" target="13">
                    <mxGeometry width="50" height="50" relative="1" as="geometry">
                        <mxPoint x="247" y="200" as="sourcePoint"/>
                        <mxPoint x="320" y="210" as="targetPoint"/>
                        <Array as="points">
                            <mxPoint x="317" y="150"/>
                        </Array>
                    </mxGeometry>
                </mxCell>
                <mxCell id="27" value="Tambah penilaian()" style="text;html=1;align=center;verticalAlign=middle;resizable=0;points=[];autosize=1;strokeColor=none;fillColor=none;strokeWidth=3;fontSize=14;fontStyle=1;fontColor=#000000;" vertex="1" parent="1">
                    <mxGeometry x="70" y="228" width="140" height="30" as="geometry"/>
                </mxCell>
                <mxCell id="28" value="" style="endArrow=none;dashed=1;html=1;dashPattern=1 3;strokeWidth=3;fontSize=14;fontStyle=1;fontColor=#000000;" edge="1" parent="1" target="29" source="44">
                    <mxGeometry width="50" height="50" relative="1" as="geometry">
                        <mxPoint x="725" y="840" as="sourcePoint"/>
                        <mxPoint x="729.58" y="150" as="targetPoint"/>
                    </mxGeometry>
                </mxCell>
                <mxCell id="29" value="" style="rounded=0;whiteSpace=wrap;html=1;fillColor=default;strokeWidth=3;fontSize=14;fontStyle=1;fontColor=#000000;" vertex="1" parent="1">
                    <mxGeometry x="721" y="510" width="10" height="138" as="geometry"/>
                </mxCell>
                <mxCell id="30" value="" style="endArrow=classic;html=1;entryX=1.153;entryY=0.156;entryDx=0;entryDy=0;entryPerimeter=0;dashed=1;strokeWidth=3;fontSize=14;fontStyle=1;fontColor=#000000;" edge="1" parent="1">
                    <mxGeometry width="50" height="50" relative="1" as="geometry">
                        <mxPoint x="475" y="343" as="sourcePoint"/>
                        <mxPoint x="43" y="343" as="targetPoint"/>
                    </mxGeometry>
                </mxCell>
                <mxCell id="31" value="" style="endArrow=classic;html=1;exitX=1.258;exitY=0.282;exitDx=0;exitDy=0;exitPerimeter=0;strokeWidth=3;fontSize=14;fontStyle=1;fontColor=#000000;" edge="1" parent="1">
                    <mxGeometry width="50" height="50" relative="1" as="geometry">
                        <mxPoint x="45" y="400" as="sourcePoint"/>
                        <mxPoint x="475" y="400" as="targetPoint"/>
                    </mxGeometry>
                </mxCell>
                <mxCell id="32" value="" style="endArrow=classic;html=1;exitX=1.258;exitY=0.282;exitDx=0;exitDy=0;exitPerimeter=0;strokeWidth=3;fontSize=14;fontStyle=1;fontColor=#000000;" edge="1" parent="1">
                    <mxGeometry width="50" height="50" relative="1" as="geometry">
                        <mxPoint x="45" y="460" as="sourcePoint"/>
                        <mxPoint x="475" y="460" as="targetPoint"/>
                    </mxGeometry>
                </mxCell>
                <mxCell id="33" value="&lt;div&gt;&lt;span&gt;Klik button simpan()&lt;/span&gt;&lt;/div&gt;" style="text;html=1;align=center;verticalAlign=middle;resizable=0;points=[];autosize=1;strokeColor=none;fillColor=none;strokeWidth=3;fontSize=14;fontStyle=1;fontColor=#000000;" vertex="1" parent="1">
                    <mxGeometry x="175" y="430" width="150" height="30" as="geometry"/>
                </mxCell>
                <mxCell id="34" value="" style="endArrow=none;dashed=1;html=1;dashPattern=1 3;strokeWidth=3;fontSize=14;fontStyle=1;fontColor=#000000;" edge="1" parent="1">
                    <mxGeometry width="50" height="50" relative="1" as="geometry">
                        <mxPoint x="483" y="860" as="sourcePoint"/>
                        <mxPoint x="483.47" y="95" as="targetPoint"/>
                    </mxGeometry>
                </mxCell>
                <mxCell id="35" value="" style="endArrow=classic;html=1;exitX=0.6;exitY=0.963;exitDx=0;exitDy=0;exitPerimeter=0;strokeWidth=3;fontSize=14;fontStyle=1;fontColor=#000000;" edge="1" parent="1" source="40">
                    <mxGeometry width="50" height="50" relative="1" as="geometry">
                        <mxPoint x="525" y="530" as="sourcePoint"/>
                        <mxPoint x="725" y="530" as="targetPoint"/>
                    </mxGeometry>
                </mxCell>
                <mxCell id="36" value="&lt;div&gt;&lt;span&gt;Simpan kedatabase()&lt;/span&gt;&lt;/div&gt;" style="text;html=1;align=center;verticalAlign=middle;resizable=0;points=[];autosize=1;strokeColor=none;fillColor=none;strokeWidth=3;fontSize=14;fontStyle=1;fontColor=#000000;" vertex="1" parent="1">
                    <mxGeometry x="515" y="495" width="160" height="30" as="geometry"/>
                </mxCell>
                <mxCell id="37" value="&lt;div&gt;&lt;span&gt;simpan()&lt;/span&gt;&lt;/div&gt;" style="text;html=1;align=center;verticalAlign=middle;resizable=0;points=[];autosize=1;strokeColor=none;fillColor=none;strokeWidth=3;fontSize=14;fontStyle=1;fontColor=#000000;" vertex="1" parent="1">
                    <mxGeometry x="726" y="495" width="80" height="30" as="geometry"/>
                </mxCell>
                <mxCell id="38" value="&lt;span&gt;Simpan data berhasil()&lt;/span&gt;" style="text;html=1;align=center;verticalAlign=middle;resizable=0;points=[];autosize=1;strokeColor=none;fillColor=none;strokeWidth=3;fontSize=14;fontStyle=1;fontColor=#000000;" vertex="1" parent="1">
                    <mxGeometry x="390" y="570" width="160" height="30" as="geometry"/>
                </mxCell>
                <mxCell id="39" value="" style="shape=actor;whiteSpace=wrap;html=1;fillColor=none;strokeWidth=3;fontStyle=1;fontColor=#000000;fontSize=14;" vertex="1" parent="1">
                    <mxGeometry x="20" y="10" width="40" height="60" as="geometry"/>
                </mxCell>
                <mxCell id="40" value="" style="rounded=0;whiteSpace=wrap;html=1;fillColor=default;strokeWidth=3;fontSize=14;fontStyle=1;fontColor=#000000;" vertex="1" parent="1">
                    <mxGeometry x="479" y="270" width="10" height="270" as="geometry"/>
                </mxCell>
                <mxCell id="41" value="USER" style="text;html=1;align=center;verticalAlign=middle;resizable=0;points=[];autosize=1;strokeColor=none;fillColor=none;fontStyle=1;fontColor=#000000;strokeWidth=3;fontSize=14;" vertex="1" parent="1">
                    <mxGeometry x="10" y="68" width="60" height="30" as="geometry"/>
                </mxCell>
                <mxCell id="42" value="" style="edgeStyle=elbowEdgeStyle;elbow=horizontal;endArrow=classic;html=1;curved=0;rounded=0;endSize=8;startSize=8;strokeWidth=3;fontSize=14;fontStyle=1;fontColor=#000000;entryX=1;entryY=0.25;entryDx=0;entryDy=0;" edge="1" parent="1" target="40">
                    <mxGeometry width="50" height="50" relative="1" as="geometry">
                        <mxPoint x="493" y="300" as="sourcePoint"/>
                        <mxPoint x="500" y="390" as="targetPoint"/>
                        <Array as="points">
                            <mxPoint x="559" y="312"/>
                        </Array>
                    </mxGeometry>
                </mxCell>
                <mxCell id="43" value="Akses()" style="text;html=1;align=center;verticalAlign=middle;resizable=0;points=[];autosize=1;strokeColor=none;fillColor=none;fontStyle=1;fontColor=#000000;strokeWidth=3;fontSize=14;" vertex="1" parent="1">
                    <mxGeometry x="505" y="280" width="70" height="30" as="geometry"/>
                </mxCell>
                <mxCell id="46" value="" style="endArrow=none;dashed=1;html=1;dashPattern=1 3;strokeWidth=3;fontSize=14;fontStyle=1;fontColor=#000000;" edge="1" parent="1" target="44">
                    <mxGeometry width="50" height="50" relative="1" as="geometry">
                        <mxPoint x="725" y="860" as="sourcePoint"/>
                        <mxPoint x="726" y="648" as="targetPoint"/>
                    </mxGeometry>
                </mxCell>
                <mxCell id="44" value="" style="rounded=0;whiteSpace=wrap;html=1;fillColor=default;strokeWidth=3;fontSize=14;fontStyle=1;fontColor=#000000;" vertex="1" parent="1">
                    <mxGeometry x="721" y="680" width="10" height="138" as="geometry"/>
                </mxCell>
                <mxCell id="47" value="" style="endArrow=classic;html=1;exitX=1;exitY=0.691;exitDx=0;exitDy=0;exitPerimeter=0;strokeWidth=3;fontSize=14;fontStyle=1;fontColor=#000000;entryX=0.3;entryY=0.312;entryDx=0;entryDy=0;entryPerimeter=0;" edge="1" parent="1" source="15" target="44">
                    <mxGeometry width="50" height="50" relative="1" as="geometry">
                        <mxPoint x="723.8899999999999" y="720.538" as="sourcePoint"/>
                        <mxPoint x="650" y="690" as="targetPoint"/>
                    </mxGeometry>
                </mxCell>
                <mxCell id="48" value="" style="endArrow=classic;html=1;entryX=1;entryY=0.5;entryDx=0;entryDy=0;exitX=0.289;exitY=0.301;exitDx=0;exitDy=0;exitPerimeter=0;strokeWidth=3;fontSize=14;fontStyle=1;fontColor=#000000;dashed=1;" edge="1" parent="1">
                    <mxGeometry width="50" height="50" relative="1" as="geometry">
                        <mxPoint x="720.9999999999999" y="800.538" as="sourcePoint"/>
                        <mxPoint x="252.11" y="800" as="targetPoint"/>
                    </mxGeometry>
                </mxCell>
                <mxCell id="49" value="" style="endArrow=classic;html=1;exitX=0.6;exitY=0.963;exitDx=0;exitDy=0;exitPerimeter=0;strokeWidth=3;fontSize=14;fontStyle=1;fontColor=#000000;" edge="1" parent="1">
                    <mxGeometry width="50" height="50" relative="1" as="geometry">
                        <mxPoint x="45" y="700" as="sourcePoint"/>
                        <mxPoint x="240" y="700" as="targetPoint"/>
                    </mxGeometry>
                </mxCell>
                <mxCell id="50" value="Klik Hapuse Penilaian()" style="text;html=1;align=center;verticalAlign=middle;resizable=0;points=[];autosize=1;strokeColor=none;fillColor=none;strokeWidth=3;fontStyle=1;fontSize=14;" vertex="1" parent="1">
                    <mxGeometry x="65" y="668" width="170" height="30" as="geometry"/>
                </mxCell>
                <mxCell id="51" value="" style="endArrow=classic;html=1;entryX=0.5;entryY=0.973;entryDx=0;entryDy=0;entryPerimeter=0;dashed=1;strokeWidth=3;fontSize=14;fontStyle=1;fontColor=#000000;exitX=0;exitY=0.944;exitDx=0;exitDy=0;exitPerimeter=0;" edge="1" parent="1" source="15" target="11">
                    <mxGeometry width="50" height="50" relative="1" as="geometry">
                        <mxPoint x="238.5" y="818" as="sourcePoint"/>
                        <mxPoint x="41.5" y="821" as="targetPoint"/>
                    </mxGeometry>
                </mxCell>
                <mxCell id="52" value="Tampilkan Data penilaian()" style="text;html=1;align=center;verticalAlign=middle;resizable=0;points=[];autosize=1;strokeColor=none;fillColor=none;strokeWidth=3;fontStyle=1;fontSize=14;" vertex="1" parent="1">
                    <mxGeometry x="40" y="778" width="190" height="30" as="geometry"/>
                </mxCell>
                <mxCell id="53" value="" style="edgeStyle=elbowEdgeStyle;elbow=horizontal;endArrow=classic;html=1;curved=0;rounded=0;endSize=8;startSize=8;strokeWidth=3;fontSize=14;fontStyle=1;fontColor=#000000;" edge="1" parent="1">
                    <mxGeometry width="50" height="50" relative="1" as="geometry">
                        <mxPoint x="734" y="721" as="sourcePoint"/>
                        <mxPoint x="734" y="799" as="targetPoint"/>
                        <Array as="points">
                            <mxPoint x="773" y="599"/>
                        </Array>
                    </mxGeometry>
                </mxCell>
                <mxCell id="54" value="&lt;div&gt;&lt;span&gt;hapus()&lt;/span&gt;&lt;/div&gt;" style="text;html=1;align=center;verticalAlign=middle;resizable=0;points=[];autosize=1;strokeColor=none;fillColor=none;strokeWidth=3;fontSize=14;fontStyle=1;fontColor=#000000;" vertex="1" parent="1">
                    <mxGeometry x="731" y="690" width="70" height="30" as="geometry"/>
                </mxCell>
                <mxCell id="55" value="Hapus data penilaian dari database()" style="text;html=1;align=center;verticalAlign=middle;resizable=0;points=[];autosize=1;strokeColor=none;fillColor=none;fontSize=14;fontStyle=1" vertex="1" parent="1">
                    <mxGeometry x="325" y="690" width="250" height="30" as="geometry"/>
                </mxCell>
                <mxCell id="56" value="Hapus Data Penilaian Berhasil()" style="text;html=1;align=center;verticalAlign=middle;resizable=0;points=[];autosize=1;strokeColor=none;fillColor=none;fontSize=14;fontStyle=1" vertex="1" parent="1">
                    <mxGeometry x="355" y="770" width="220" height="30" as="geometry"/>
                </mxCell>
            </root>
        </mxGraphModel>
    </diagram>
</mxfile>